# xmcd
#
# Track frame offsets:
#	150
#	20505
#	34717
#	48569
#	62367
#	79724
#	93161
#	115289
#	131219
#	144512
#	155204
#	165376
#	179413
#	192104
#	204847
#	218777
#	232755
#	243331
#	254172
#	269420
#	286660
#	301335
#	319620
#	334424
#
# Disc length: 4588 seconds
#
# Revision: 0
# Processed by: cddbd v1.5.2PL0 Copyright (c) Steve Scherf et al.
# Submitted via: audiograbber 1.83.01
#
DISCID=5311ea18
DTITLE=Western Heart - Western Heart 083
DYEAR=2007
DGENRE=Country
TTITLE0=Embrace The World  - Marvell and Friends
TTITLE1=100 Percent Pure Texan - Judy Canyo
TTITLE2=Texas Hold´ Em Championship Bracelet  - David Cline
TTITLE3=The Boar Hog Twist  - Regan Hudson
TTITLE4=Veteran  - Tim Chesney
TTITLE5=Goin Crazy and You´re Driving  - Tumbletweed Junction 
TTITLE6=Hard To Fall In Love  - Butch Ryan
TTITLE7=My Sweet Refuge  - Tumbletweed Junction 
TTITLE8=Follow Me Down The Crooked Road  - Ike Mumpower
TTITLE9=Wonderful World Of Christmas  - Dick Damron
TTITLE10=Visions  - Cheryl K Warner
TTITLE11=Mrs. Santa Claus  - Hal Willis
TTITLE12=Merry Christmas My Friend  - Blanche Tate
TTITLE13=Merry Christmas Baby  - Jim Marlboro
TTITLE14=What I Want For Christmas  - Judy Weldon
TTITLE15=Christmas Carol  - Richard Draime
TTITLE16=Let´s Go For A Sleigh Ride  - Hal Willis
TTITLE17=Mistletoe My Cowboy - Judy Kanyo
TTITLE18=Santa Clause Brought Heartaches  - Regan Hudson
TTITLE19=Not Just Another Baby  - Gladys Jones
TTITLE20=555 Ho, Ho, Ho - Hal Willis
TTITLE21=Christmas Dreaming  - The Matekies
TTITLE22=Beautiful Star  - Sylvia Winters
TTITLE23=Ol´ Santa  - Ernie Ashworth
EXTD=
EXTT0=
EXTT1=
EXTT2=
EXTT3=
EXTT4=
EXTT5=
EXTT6=
EXTT7=
EXTT8=
EXTT9=
EXTT10=
EXTT11=
EXTT12=
EXTT13=
EXTT14=
EXTT15=
EXTT16=
EXTT17=
EXTT18=
EXTT19=
EXTT20=
EXTT21=
EXTT22=
EXTT23=
PLAYORDER=
